HIERARCHY
ROOT hip
{
	OFFSET 0.000000 0.000000 0.000000 
	CHANNELS 6 Xposition Yposition Zposition Xrotation Zrotation Yrotation
	JOINT abdomen
	{
		OFFSET 0.000000 3.402643 0.000000 
		CHANNELS 3 Xrotation Zrotation Yrotation
		JOINT chest
		{
			OFFSET 0.000000 8.438565 -0.680529 
			CHANNELS 3 Xrotation Zrotation Yrotation
			JOINT neck
			{
				OFFSET 0.000000 10.207942 -0.272212 
				CHANNELS 3 Xrotation Zrotation Yrotation
				JOINT head
				{
					OFFSET 0.000000 3.130431 0.000000 
					CHANNELS 3 Xrotation Zrotation Yrotation
					End Site
					{
						OFFSET 0.000000 3.130435 0.000000 
					}
				}
			}
			JOINT lCollar
			{
				OFFSET 3.470700 6.669187 -0.816635 
				CHANNELS 3 Yrotation Zrotation Xrotation
				JOINT lShldr
				{
					OFFSET 3.198488 0.000000 0.000000 
					CHANNELS 3 Zrotation Yrotation Xrotation
					JOINT lForeArm
					{
						OFFSET 10.139888 0.000000 0.000000 
						CHANNELS 3 Yrotation Zrotation Xrotation
						JOINT lHand
						{
							OFFSET 8.370511 0.000000 0.000000 
							CHANNELS 3 Zrotation Yrotation Xrotation
							End Site
							{
								OFFSET 4.083176 0.000000 0.000000 
							}
						}
					}
				}
			}
			JOINT rCollar
			{
				OFFSET -3.470700 6.669187 -0.816635 
				CHANNELS 3 Yrotation Zrotation Xrotation
				JOINT rShldr
				{
					OFFSET -3.198488 0.000000 0.000000 
					CHANNELS 3 Zrotation Yrotation Xrotation
					JOINT rForeArm
					{
						OFFSET -10.139888 0.000000 0.000000 
						CHANNELS 3 Yrotation Zrotation Xrotation
						JOINT rHand
						{
							OFFSET -8.370511 0.000000 0.000000 
							CHANNELS 3 Zrotation Yrotation Xrotation
							End Site
							{
								OFFSET -4.083176 0.000000 0.000000 
							}
						}
					}
				}
			}
		}
	}
	JOINT lThigh
	{
		OFFSET 5.308129 -1.633274 1.361059 
		CHANNELS 3 Xrotation Zrotation Yrotation
		JOINT lShin
		{
			OFFSET -2.041588 -20.007561 0.000000 
			CHANNELS 3 Xrotation Zrotation Yrotation
			JOINT lFoot
			{
				OFFSET 0.000000 -19.190928 -1.224953 
				CHANNELS 3 Xrotation Yrotation Zrotation
				End Site
				{
					OFFSET 0.000000 -2.449906 4.627600 
				}
			}
		}
	}
	JOINT rThigh
	{
		OFFSET -5.308129 -1.633274 1.361059 
		CHANNELS 3 Xrotation Zrotation Yrotation
		JOINT rShin
		{
			OFFSET 2.041588 -20.007561 0.000000 
			CHANNELS 3 Xrotation Zrotation Yrotation
			JOINT rFoot
			{
				OFFSET 0.000000 -19.190928 -1.224953 
				CHANNELS 3 Xrotation Yrotation Zrotation
				End Site
				{
					OFFSET 0.000000 -2.449906 4.627600 
				}
			}
		}
	}
}
MOTION
Frames: 11
Frame Time: 0.011111
-13.243923 51.121357 26.997351 -11.059822 -0.319789 -154.760605 8.093472 -8.064775 -9.638971 -10.131920 7.030931 -2.858992 -11.479584 -11.441339 -5.807921 17.257055 11.592400 -11.837169 12.413046 -14.960623 4.251975 -56.353088 -37.573002 29.574800 -70.576866 10.066770 16.173119 6.992188 16.005859 -49.948479 -6.427974 8.898234 2.089853 -15.545261 57.950577 -67.541580 89.225899 -2.263958 27.387152 -7.001954 -15.996095 71.552734 10.440964 -1.952244 -4.721200 13.615085 -5.273914 -0.802647 -3.712374 -25.642075 -4.355498 -35.350803 -6.523259 -3.781422 23.956972 5.281601 1.671615 -10.604396 -12.951074 -1.284903 
-13.299597 51.180470 26.472523 -10.830419 -0.092129 -154.526825 8.194630 -7.678410 -9.400485 -9.631168 7.088379 -2.761813 -11.881356 -11.607378 -5.902645 17.038746 11.653834 -12.173313 12.413046 -14.960623 4.251975 -56.892773 -37.953121 29.050585 -69.969101 10.110055 15.894125 6.992188 16.005859 -50.163319 -6.427974 8.898234 2.089853 -18.914499 59.227242 -69.703217 88.948540 -2.650780 26.958395 -7.001954 -15.996095 70.341797 11.086822 -1.357207 -5.383174 13.331435 -5.273781 -0.781834 -2.630915 -24.833681 -3.759456 -34.939045 -6.122474 -3.731324 24.427567 5.281978 1.709961 -9.535495 -13.768542 -1.120124 
-13.379980 51.224567 25.932367 -10.472841 0.384274 -154.587662 8.190061 -6.937463 -8.846798 -9.560775 6.879950 -2.605937 -11.817605 -11.997047 -6.018504 17.222075 12.285677 -12.334645 12.413046 -14.960623 4.251975 -57.016495 -37.737125 28.560450 -69.487503 10.136499 15.670112 6.992188 16.005859 -50.583244 -6.427974 8.898234 2.089853 -21.872690 60.312256 -71.382965 88.590271 -3.092567 26.514866 -7.001954 -15.996095 69.335938 11.540393 -0.605606 -5.647401 13.511400 -5.243537 -0.804740 -1.615874 -24.143526 -3.244122 -34.368969 -5.350191 -3.856387 24.784981 5.295345 1.726610 -9.280630 -13.369376 -1.033514 
-13.468179 51.266796 25.409733 -10.331547 0.574191 -154.733231 8.123281 -6.645456 -8.110961 -9.597495 6.535060 -2.400395 -11.518234 -11.963070 -6.283297 17.213360 12.596115 -12.733817 12.413046 -14.960623 4.251975 -56.824745 -37.317905 28.398071 -69.037811 10.157402 15.449307 6.992188 16.005859 -49.694572 -6.427974 8.898234 2.089853 -24.390459 61.250759 -73.119301 88.179016 -3.544500 26.066978 -7.001954 -15.996095 68.222656 11.657535 -0.244365 -5.943412 14.302637 -5.253567 -0.875624 -0.583193 -23.453066 -2.719753 -33.998173 -4.891353 -3.706735 25.067741 5.283062 1.774512 -9.003177 -12.602552 -0.908430 
-13.552316 51.296822 24.912739 -10.483434 0.730434 -154.979813 7.874061 -6.565143 -7.269034 -9.506223 6.121146 -2.135699 -11.322741 -11.534918 -6.636116 16.748997 12.394139 -13.381400 12.413046 -14.960623 4.251975 -56.793068 -37.272800 28.097157 -68.470871 10.180336 15.197554 6.992188 16.005859 -49.323479 -6.427974 8.898234 2.089853 -26.702984 62.143417 -75.033661 87.729919 -3.990205 25.643877 -7.001954 -15.996095 66.718750 11.141404 -0.117309 -5.982035 15.643859 -5.274340 -0.979043 0.435550 -23.101475 -2.243542 -33.909199 -4.529916 -3.408593 25.339590 5.273004 1.793230 -8.301859 -11.765095 -0.686741 
-13.633324 51.311207 24.383221 -10.336397 1.209813 -155.207581 7.746521 -5.928212 -6.576889 -9.298149 5.812011 -1.928545 -11.329139 -11.245769 -6.879288 16.254368 12.051957 -13.918445 12.413046 -14.960623 4.251975 -57.099747 -37.437553 27.079935 -67.517075 10.203362 14.752657 6.992188 16.005859 -50.046135 -6.427974 8.898234 2.089853 -29.260483 63.087090 -76.878418 87.161957 -4.492736 25.172323 -7.001954 -15.996095 65.253906 10.701716 0.478311 -6.026058 16.997614 -5.286190 -1.082994 1.327317 -22.711149 -1.861493 -33.462406 -3.759010 -3.572978 25.826307 5.286923 1.825803 -8.146432 -10.899261 -0.592684 
-13.696191 51.370632 23.879974 -10.511291 1.646262 -155.227661 7.301113 -5.468316 -6.216047 -9.208130 5.538860 -1.825738 -11.216149 -11.227832 -7.040771 16.136723 12.154994 -14.196145 12.413046 -14.960623 4.251975 -57.234371 -37.269539 26.101719 -66.604713 10.208099 14.335595 6.992188 16.005859 -50.173088 -6.427974 8.898234 2.089853 -31.692039 64.060890 -78.373520 86.446831 -5.061673 24.638548 -7.001954 -15.996095 64.042969 9.939312 0.966364 -6.435374 18.295954 -5.283175 -1.211928 2.680638 -21.833532 -1.253121 -33.382290 -3.319225 -4.016779 26.477955 5.272288 1.888171 -8.670611 -10.215304 -0.612795 
-13.789395 51.428806 23.348577 -10.473240 1.639763 -155.846481 7.018507 -5.475158 -5.524446 -8.943164 5.455598 -1.606437 -10.799131 -11.295374 -7.190810 15.795097 12.397037 -14.405113 12.413046 -14.960623 4.251975 -57.409222 -36.897289 25.319092 -65.917511 10.201874 14.017868 6.992188 16.005859 -49.792225 -6.427974 8.898234 2.089853 -34.182877 65.095299 -79.970390 85.660500 -5.612031 24.084429 -7.001954 -15.996095 62.636723 9.640825 1.043293 -6.124655 19.671135 -5.305902 -1.309293 4.264322 -21.187548 -0.611058 -32.902481 -2.938208 -4.273265 27.115229 5.277379 1.944195 -9.017887 -9.258759 -0.604543 
-13.844754 51.486359 22.802483 -10.452343 1.576372 -156.134827 6.792296 -5.734992 -5.109336 -8.718822 5.636640 -1.481398 -10.097072 -11.155160 -7.388676 15.035748 12.458851 -14.653179 12.413046 -14.960623 4.251975 -57.633804 -36.458282 24.302620 -65.296638 10.194144 13.737974 6.992188 16.005859 -50.007069 -6.427974 8.898234 2.089853 -36.573841 66.032219 -81.359360 84.824509 -6.131743 23.541981 -7.001954 -15.996095 61.386723 9.244609 1.190607 -5.759638 21.049660 -5.293198 -1.449799 6.348516 -20.851818 0.201207 -32.437035 -2.723899 -4.478693 27.745581 5.262293 1.995896 -9.278861 -8.400017 -0.535475 
-13.870401 51.542027 22.252007 -10.332767 1.722032 -155.998642 6.844556 -5.720159 -4.750987 -9.149484 5.449847 -1.400468 -9.438966 -11.002402 -7.663328 14.795090 12.870638 -14.971376 12.413046 -14.960623 4.251975 -57.383411 -35.760277 23.625299 -64.661774 10.171084 13.449448 6.992188 16.005859 -50.114491 -6.427974 8.898234 2.089853 -38.010883 66.459908 -81.471344 83.842934 -6.675956 22.951639 -7.001954 -15.996095 60.957035 8.691776 1.696475 -5.630592 22.406033 -5.306731 -1.555470 8.979815 -19.993402 1.193006 -31.894035 -2.441341 -4.985184 28.364336 5.253139 2.047757 -9.432153 -7.558843 -0.440850 
-13.901992 51.562675 21.689648 -9.985559 1.973199 -155.811432 7.145800 -5.366093 -4.414642 -9.500967 5.186787 -1.321866 -9.376991 -10.900986 -7.902009 15.098857 13.111233 -15.368851 12.413046 -14.960623 4.251975 -57.252117 -35.303143 22.886002 -63.857399 10.138522 13.087720 6.992188 16.005859 -50.339104 -6.427974 8.898234 2.089853 -39.702522 66.810844 -81.920341 82.592873 -7.279417 22.224094 -7.001954 -15.996095 60.419922 8.215669 2.399615 -5.422868 23.843349 -5.297606 -1.660190 11.622087 -18.657974 2.160022 -31.044689 -2.001924 -5.641088 28.861788 5.253075 2.097246 -9.708183 -6.819291 -0.395435 
